<mxfile host="app.diagrams.net" modified="2023-07-04T16:02:54.566Z" agent="Mozilla/5.0 (Windows NT 10.0; Win64; x64) AppleWebKit/537.36 (KHTML, like Gecko) Chrome/114.0.0.0 Safari/537.36 Edg/114.0.1823.67" etag="1etTK_FpoG4BzL8NlaJ8" version="21.1.2" type="device" pages="2">
  <diagram id="C5RBs43oDa-KdzZeNtuy" name="Page-1">
    <mxGraphModel dx="1877" dy="1727" grid="1" gridSize="10" guides="1" tooltips="1" connect="1" arrows="1" fold="1" page="1" pageScale="1" pageWidth="827" pageHeight="1169" math="0" shadow="0">
      <root>
        <mxCell id="WIyWlLk6GJQsqaUBKTNV-0" />
        <mxCell id="WIyWlLk6GJQsqaUBKTNV-1" parent="WIyWlLk6GJQsqaUBKTNV-0" />
        <mxCell id="rJPxmWnG03GvI6RKhynG-2" value="SELECT PLAYER" style="edgeStyle=orthogonalEdgeStyle;rounded=0;orthogonalLoop=1;jettySize=auto;html=1;entryX=0.5;entryY=0;entryDx=0;entryDy=0;labelBackgroundColor=#CCFF99;labelBorderColor=#66FF66;" edge="1" parent="WIyWlLk6GJQsqaUBKTNV-1" source="WIyWlLk6GJQsqaUBKTNV-3" target="WIyWlLk6GJQsqaUBKTNV-7">
          <mxGeometry relative="1" as="geometry" />
        </mxCell>
        <mxCell id="WIyWlLk6GJQsqaUBKTNV-3" value="View players list" style="rounded=1;whiteSpace=wrap;html=1;fontSize=12;glass=0;strokeWidth=1;shadow=0;labelBackgroundColor=#CCFF99;labelBorderColor=#66FF66;" parent="WIyWlLk6GJQsqaUBKTNV-1" vertex="1">
          <mxGeometry x="160" y="50" width="120" height="40" as="geometry" />
        </mxCell>
        <mxCell id="rJPxmWnG03GvI6RKhynG-5" value="SELECT MATCH" style="edgeStyle=orthogonalEdgeStyle;rounded=0;orthogonalLoop=1;jettySize=auto;html=1;entryX=0.5;entryY=0;entryDx=0;entryDy=0;labelBackgroundColor=#CCFF99;labelBorderColor=#66FF66;" edge="1" parent="WIyWlLk6GJQsqaUBKTNV-1" source="WIyWlLk6GJQsqaUBKTNV-7" target="rJPxmWnG03GvI6RKhynG-4">
          <mxGeometry relative="1" as="geometry" />
        </mxCell>
        <mxCell id="WIyWlLk6GJQsqaUBKTNV-7" value="LIST OF PLAYER MATCHES" style="rounded=1;whiteSpace=wrap;html=1;fontSize=12;glass=0;strokeWidth=1;shadow=0;labelBackgroundColor=#CCFF99;labelBorderColor=#66FF66;" parent="WIyWlLk6GJQsqaUBKTNV-1" vertex="1">
          <mxGeometry x="160" y="150" width="120" height="40" as="geometry" />
        </mxCell>
        <mxCell id="rJPxmWnG03GvI6RKhynG-8" value="" style="edgeStyle=orthogonalEdgeStyle;rounded=0;orthogonalLoop=1;jettySize=auto;html=1;exitX=0.552;exitY=1.026;exitDx=0;exitDy=0;exitPerimeter=0;" edge="1" parent="WIyWlLk6GJQsqaUBKTNV-1" source="rJPxmWnG03GvI6RKhynG-10" target="rJPxmWnG03GvI6RKhynG-7">
          <mxGeometry relative="1" as="geometry" />
        </mxCell>
        <mxCell id="rJPxmWnG03GvI6RKhynG-9" value="SELECT ON CHAMPION NAME" style="edgeLabel;html=1;align=center;verticalAlign=middle;resizable=0;points=[];labelBackgroundColor=#CCFF99;" vertex="1" connectable="0" parent="rJPxmWnG03GvI6RKhynG-8">
          <mxGeometry x="-0.2433" relative="1" as="geometry">
            <mxPoint as="offset" />
          </mxGeometry>
        </mxCell>
        <mxCell id="rJPxmWnG03GvI6RKhynG-11" value="" style="edgeStyle=orthogonalEdgeStyle;rounded=0;orthogonalLoop=1;jettySize=auto;html=1;" edge="1" parent="WIyWlLk6GJQsqaUBKTNV-1" source="rJPxmWnG03GvI6RKhynG-4" target="rJPxmWnG03GvI6RKhynG-10">
          <mxGeometry relative="1" as="geometry" />
        </mxCell>
        <mxCell id="rJPxmWnG03GvI6RKhynG-12" value="SELECT &lt;br&gt;&quot;SHOW MORE&quot;&lt;br&gt;OVER SPECIFIC PLAYER" style="edgeLabel;html=1;align=center;verticalAlign=middle;resizable=0;points=[];labelBackgroundColor=#CCFF99;labelBorderColor=#66FF66;" vertex="1" connectable="0" parent="rJPxmWnG03GvI6RKhynG-11">
          <mxGeometry x="0.1486" y="1" relative="1" as="geometry">
            <mxPoint x="-33" y="1" as="offset" />
          </mxGeometry>
        </mxCell>
        <mxCell id="rJPxmWnG03GvI6RKhynG-4" value="VIEW MATCH STATS&lt;br&gt;FOR EACH TEAM" style="rounded=1;whiteSpace=wrap;html=1;fontSize=12;glass=0;strokeWidth=1;shadow=0;labelBackgroundColor=#CCFF99;labelBorderColor=#66FF66;" vertex="1" parent="WIyWlLk6GJQsqaUBKTNV-1">
          <mxGeometry x="160" y="230" width="120" height="40" as="geometry" />
        </mxCell>
        <mxCell id="rJPxmWnG03GvI6RKhynG-7" value="VIEW CHAMPION INFORMATIONS" style="whiteSpace=wrap;html=1;rounded=1;glass=0;strokeWidth=1;shadow=0;labelBackgroundColor=#CCFF99;labelBorderColor=#66FF66;" vertex="1" parent="WIyWlLk6GJQsqaUBKTNV-1">
          <mxGeometry x="542.5" y="370" width="120" height="30" as="geometry" />
        </mxCell>
        <mxCell id="rJPxmWnG03GvI6RKhynG-14" value="" style="edgeStyle=orthogonalEdgeStyle;rounded=0;orthogonalLoop=1;jettySize=auto;html=1;" edge="1" parent="WIyWlLk6GJQsqaUBKTNV-1" source="rJPxmWnG03GvI6RKhynG-10" target="rJPxmWnG03GvI6RKhynG-13">
          <mxGeometry relative="1" as="geometry" />
        </mxCell>
        <mxCell id="rJPxmWnG03GvI6RKhynG-15" value="SELECT ITEM NAME IN INVENTORY" style="edgeLabel;html=1;align=center;verticalAlign=middle;resizable=0;points=[];" vertex="1" connectable="0" parent="rJPxmWnG03GvI6RKhynG-14">
          <mxGeometry x="-0.2262" y="1" relative="1" as="geometry">
            <mxPoint as="offset" />
          </mxGeometry>
        </mxCell>
        <mxCell id="rJPxmWnG03GvI6RKhynG-10" value="VIEW ABILITIES UPGRADE SEQUENCE&lt;br&gt;+&lt;br&gt;VIEW IN GAME INVENTORY" style="whiteSpace=wrap;html=1;rounded=1;glass=0;strokeWidth=1;shadow=0;labelBackgroundColor=#CCFF99;labelBorderColor=#66FF66;" vertex="1" parent="WIyWlLk6GJQsqaUBKTNV-1">
          <mxGeometry x="510" y="220" width="170" height="70" as="geometry" />
        </mxCell>
        <mxCell id="rJPxmWnG03GvI6RKhynG-30" style="edgeStyle=orthogonalEdgeStyle;rounded=0;orthogonalLoop=1;jettySize=auto;html=1;exitX=1;exitY=0.5;exitDx=0;exitDy=0;entryX=1;entryY=0.25;entryDx=0;entryDy=0;labelBorderColor=#FF6666;labelBackgroundColor=#FFE6CC;" edge="1" parent="WIyWlLk6GJQsqaUBKTNV-1" source="rJPxmWnG03GvI6RKhynG-13" target="rJPxmWnG03GvI6RKhynG-13">
          <mxGeometry relative="1" as="geometry">
            <mxPoint x="810" y="120" as="targetPoint" />
            <Array as="points">
              <mxPoint x="670" y="160" />
              <mxPoint x="750" y="160" />
              <mxPoint x="750" y="125" />
            </Array>
          </mxGeometry>
        </mxCell>
        <mxCell id="rJPxmWnG03GvI6RKhynG-31" value="SELECT ANOTHER ITEM" style="edgeLabel;html=1;align=center;verticalAlign=middle;resizable=0;points=[];labelBorderColor=#FF6666;labelBackgroundColor=#FFE6CC;" vertex="1" connectable="0" parent="rJPxmWnG03GvI6RKhynG-30">
          <mxGeometry x="0.4543" y="2" relative="1" as="geometry">
            <mxPoint x="31" y="13" as="offset" />
          </mxGeometry>
        </mxCell>
        <mxCell id="rJPxmWnG03GvI6RKhynG-13" value="VIEW ITEM INFORMATION: BUILD&amp;nbsp;&lt;br&gt;RECEIPT AND CAN BUILD INTO" style="whiteSpace=wrap;html=1;rounded=1;glass=0;strokeWidth=1;shadow=0;labelBorderColor=#FF6666;labelBackgroundColor=#FFE6CC;" vertex="1" parent="WIyWlLk6GJQsqaUBKTNV-1">
          <mxGeometry x="535" y="110" width="135" height="60" as="geometry" />
        </mxCell>
        <mxCell id="rJPxmWnG03GvI6RKhynG-17" value="SEARCH PLAYERS" style="edgeStyle=orthogonalEdgeStyle;rounded=0;orthogonalLoop=1;jettySize=auto;html=1;labelBackgroundColor=#CCFF99;labelBorderColor=#66FF66;" edge="1" parent="WIyWlLk6GJQsqaUBKTNV-1" source="rJPxmWnG03GvI6RKhynG-16" target="WIyWlLk6GJQsqaUBKTNV-3">
          <mxGeometry relative="1" as="geometry" />
        </mxCell>
        <mxCell id="rJPxmWnG03GvI6RKhynG-19" value="" style="edgeStyle=orthogonalEdgeStyle;rounded=0;orthogonalLoop=1;jettySize=auto;html=1;" edge="1" parent="WIyWlLk6GJQsqaUBKTNV-1" source="rJPxmWnG03GvI6RKhynG-16" target="rJPxmWnG03GvI6RKhynG-18">
          <mxGeometry relative="1" as="geometry" />
        </mxCell>
        <mxCell id="rJPxmWnG03GvI6RKhynG-21" value="SELECT&amp;nbsp;" style="edgeStyle=orthogonalEdgeStyle;rounded=0;orthogonalLoop=1;jettySize=auto;html=1;labelBackgroundColor=#CCFF99;" edge="1" parent="WIyWlLk6GJQsqaUBKTNV-1" source="rJPxmWnG03GvI6RKhynG-16" target="rJPxmWnG03GvI6RKhynG-20">
          <mxGeometry relative="1" as="geometry" />
        </mxCell>
        <mxCell id="rJPxmWnG03GvI6RKhynG-16" value="HOME" style="rounded=1;whiteSpace=wrap;html=1;fontSize=12;glass=0;strokeWidth=1;shadow=0;labelBackgroundColor=#CCFF99;labelBorderColor=#66FF66;" vertex="1" parent="WIyWlLk6GJQsqaUBKTNV-1">
          <mxGeometry x="160" y="-20" width="120" height="40" as="geometry" />
        </mxCell>
        <mxCell id="rJPxmWnG03GvI6RKhynG-22" style="edgeStyle=orthogonalEdgeStyle;rounded=0;orthogonalLoop=1;jettySize=auto;html=1;entryX=0.5;entryY=0;entryDx=0;entryDy=0;labelBorderColor=#FF6666;" edge="1" parent="WIyWlLk6GJQsqaUBKTNV-1" source="rJPxmWnG03GvI6RKhynG-18" target="rJPxmWnG03GvI6RKhynG-13">
          <mxGeometry relative="1" as="geometry" />
        </mxCell>
        <mxCell id="rJPxmWnG03GvI6RKhynG-24" value="SELECT ITEM" style="edgeLabel;html=1;align=center;verticalAlign=middle;resizable=0;points=[];labelBorderColor=#FF6666;labelBackgroundColor=#CCFF99;" vertex="1" connectable="0" parent="rJPxmWnG03GvI6RKhynG-22">
          <mxGeometry x="-0.5917" y="-3" relative="1" as="geometry">
            <mxPoint as="offset" />
          </mxGeometry>
        </mxCell>
        <mxCell id="rJPxmWnG03GvI6RKhynG-18" value="VIEW ITEMS" style="whiteSpace=wrap;html=1;rounded=1;glass=0;strokeWidth=1;shadow=0;labelBorderColor=#FF6666;labelBackgroundColor=#CCFF99;" vertex="1" parent="WIyWlLk6GJQsqaUBKTNV-1">
          <mxGeometry x="370" y="-25" width="110" height="50" as="geometry" />
        </mxCell>
        <mxCell id="rJPxmWnG03GvI6RKhynG-23" style="edgeStyle=orthogonalEdgeStyle;rounded=0;orthogonalLoop=1;jettySize=auto;html=1;entryX=0;entryY=0.5;entryDx=0;entryDy=0;" edge="1" parent="WIyWlLk6GJQsqaUBKTNV-1" source="rJPxmWnG03GvI6RKhynG-20" target="rJPxmWnG03GvI6RKhynG-7">
          <mxGeometry relative="1" as="geometry">
            <Array as="points">
              <mxPoint x="20" y="385" />
            </Array>
          </mxGeometry>
        </mxCell>
        <mxCell id="rJPxmWnG03GvI6RKhynG-25" value="SELECT CHAMPION" style="edgeLabel;html=1;align=center;verticalAlign=middle;resizable=0;points=[];labelBackgroundColor=#CCFF99;" vertex="1" connectable="0" parent="rJPxmWnG03GvI6RKhynG-23">
          <mxGeometry x="-0.8103" y="-2" relative="1" as="geometry">
            <mxPoint as="offset" />
          </mxGeometry>
        </mxCell>
        <mxCell id="rJPxmWnG03GvI6RKhynG-20" value="VIEW CHAMPIONS" style="rounded=1;whiteSpace=wrap;html=1;fontSize=12;glass=0;strokeWidth=1;shadow=0;labelBackgroundColor=#CCFF99;labelBorderColor=#66FF66;" vertex="1" parent="WIyWlLk6GJQsqaUBKTNV-1">
          <mxGeometry x="-40" y="-20" width="120" height="40" as="geometry" />
        </mxCell>
        <mxCell id="rJPxmWnG03GvI6RKhynG-28" value="START" style="shape=note;whiteSpace=wrap;html=1;backgroundOutline=1;fontColor=#000000;darkOpacity=0.05;fillColor=#FFF9B2;strokeColor=none;fillStyle=solid;direction=west;gradientDirection=north;gradientColor=#FFF2A1;shadow=1;size=20;pointerEvents=1;labelBackgroundColor=#CCFF99;labelBorderColor=#66FF66;" vertex="1" parent="WIyWlLk6GJQsqaUBKTNV-1">
          <mxGeometry x="195" y="-75" width="50" height="50" as="geometry" />
        </mxCell>
        <mxCell id="ThPkJSE3K3Ul_rAnvItG-0" value="" style="rounded=0;whiteSpace=wrap;html=1;fillColor=#d5e8d4;strokeColor=#82b366;" vertex="1" parent="WIyWlLk6GJQsqaUBKTNV-1">
          <mxGeometry x="640" y="-95" width="80" height="20" as="geometry" />
        </mxCell>
        <mxCell id="ThPkJSE3K3Ul_rAnvItG-1" value="" style="rounded=0;whiteSpace=wrap;html=1;fillColor=#ffe6cc;strokeColor=#d79b00;" vertex="1" parent="WIyWlLk6GJQsqaUBKTNV-1">
          <mxGeometry x="640" y="-60" width="80" height="20" as="geometry" />
        </mxCell>
        <mxCell id="ThPkJSE3K3Ul_rAnvItG-2" value="implementato" style="text;html=1;align=center;verticalAlign=middle;resizable=0;points=[];autosize=1;strokeColor=none;fillColor=none;" vertex="1" parent="WIyWlLk6GJQsqaUBKTNV-1">
          <mxGeometry x="540" y="-100" width="100" height="30" as="geometry" />
        </mxCell>
        <mxCell id="ThPkJSE3K3Ul_rAnvItG-4" value="non implementato&lt;br&gt;" style="text;html=1;align=center;verticalAlign=middle;resizable=0;points=[];autosize=1;strokeColor=none;fillColor=none;" vertex="1" parent="WIyWlLk6GJQsqaUBKTNV-1">
          <mxGeometry x="530" y="-70" width="120" height="30" as="geometry" />
        </mxCell>
      </root>
    </mxGraphModel>
  </diagram>
  <diagram id="vOCD-MbkdYXltdNMZBLm" name="Pagina-2">
    <mxGraphModel dx="1235" dy="656" grid="1" gridSize="10" guides="1" tooltips="1" connect="1" arrows="1" fold="1" page="1" pageScale="1" pageWidth="827" pageHeight="1169" math="0" shadow="0">
      <root>
        <mxCell id="0" />
        <mxCell id="1" parent="0" />
        <mxCell id="900KOigRp1aH0985cUeR-1" value="" style="rounded=0;whiteSpace=wrap;html=1;" vertex="1" parent="1">
          <mxGeometry x="140" y="100" width="410" height="170" as="geometry" />
        </mxCell>
        <mxCell id="900KOigRp1aH0985cUeR-2" value="Items&lt;br&gt;Champions&lt;br&gt;Players" style="rounded=1;whiteSpace=wrap;html=1;" vertex="1" parent="1">
          <mxGeometry x="305" y="132.5" width="80" height="117.5" as="geometry" />
        </mxCell>
        <mxCell id="900KOigRp1aH0985cUeR-3" value="LOL Data Analyzer" style="whiteSpace=wrap;html=1;" vertex="1" parent="1">
          <mxGeometry x="160" y="155" width="120" height="60" as="geometry" />
        </mxCell>
        <mxCell id="900KOigRp1aH0985cUeR-8" value="" style="rounded=0;whiteSpace=wrap;html=1;" vertex="1" parent="1">
          <mxGeometry x="140" y="330" width="410" height="170" as="geometry" />
        </mxCell>
        <mxCell id="900KOigRp1aH0985cUeR-10" value="Select one players in&amp;nbsp; the menu" style="whiteSpace=wrap;html=1;" vertex="1" parent="1">
          <mxGeometry x="240" y="340" width="190" height="30" as="geometry" />
        </mxCell>
        <mxCell id="900KOigRp1aH0985cUeR-11" value="List" style="swimlane;fontStyle=0;childLayout=stackLayout;horizontal=1;startSize=30;horizontalStack=0;resizeParent=1;resizeParentMax=0;resizeLast=0;collapsible=1;marginBottom=0;whiteSpace=wrap;html=1;" vertex="1" parent="1">
          <mxGeometry x="275" y="380" width="110" height="120" as="geometry" />
        </mxCell>
        <mxCell id="900KOigRp1aH0985cUeR-12" value="Player1" style="text;strokeColor=none;fillColor=none;align=left;verticalAlign=middle;spacingLeft=4;spacingRight=4;overflow=hidden;points=[[0,0.5],[1,0.5]];portConstraint=eastwest;rotatable=0;whiteSpace=wrap;html=1;" vertex="1" parent="900KOigRp1aH0985cUeR-11">
          <mxGeometry y="30" width="110" height="30" as="geometry" />
        </mxCell>
        <mxCell id="900KOigRp1aH0985cUeR-13" value="Player 2" style="text;strokeColor=none;fillColor=none;align=left;verticalAlign=middle;spacingLeft=4;spacingRight=4;overflow=hidden;points=[[0,0.5],[1,0.5]];portConstraint=eastwest;rotatable=0;whiteSpace=wrap;html=1;" vertex="1" parent="900KOigRp1aH0985cUeR-11">
          <mxGeometry y="60" width="110" height="30" as="geometry" />
        </mxCell>
        <mxCell id="900KOigRp1aH0985cUeR-14" value="Player 3&lt;br&gt;" style="text;strokeColor=none;fillColor=none;align=left;verticalAlign=middle;spacingLeft=4;spacingRight=4;overflow=hidden;points=[[0,0.5],[1,0.5]];portConstraint=eastwest;rotatable=0;whiteSpace=wrap;html=1;" vertex="1" parent="900KOigRp1aH0985cUeR-11">
          <mxGeometry y="90" width="110" height="30" as="geometry" />
        </mxCell>
        <mxCell id="900KOigRp1aH0985cUeR-15" value="" style="rounded=0;whiteSpace=wrap;html=1;" vertex="1" parent="1">
          <mxGeometry x="140" y="530" width="410" height="170" as="geometry" />
        </mxCell>
        <mxCell id="900KOigRp1aH0985cUeR-16" value="Select one match in&amp;nbsp; the menu" style="whiteSpace=wrap;html=1;" vertex="1" parent="1">
          <mxGeometry x="160" y="540" width="350" height="30" as="geometry" />
        </mxCell>
        <mxCell id="900KOigRp1aH0985cUeR-17" value="List" style="swimlane;fontStyle=0;childLayout=stackLayout;horizontal=1;startSize=30;horizontalStack=0;resizeParent=1;resizeParentMax=0;resizeLast=0;collapsible=1;marginBottom=0;whiteSpace=wrap;html=1;" vertex="1" parent="1">
          <mxGeometry x="275" y="580" width="110" height="120" as="geometry" />
        </mxCell>
        <mxCell id="900KOigRp1aH0985cUeR-18" value="Match 234" style="text;strokeColor=none;fillColor=none;align=left;verticalAlign=middle;spacingLeft=4;spacingRight=4;overflow=hidden;points=[[0,0.5],[1,0.5]];portConstraint=eastwest;rotatable=0;whiteSpace=wrap;html=1;" vertex="1" parent="900KOigRp1aH0985cUeR-17">
          <mxGeometry y="30" width="110" height="30" as="geometry" />
        </mxCell>
        <mxCell id="900KOigRp1aH0985cUeR-19" value="Match 233" style="text;strokeColor=none;fillColor=none;align=left;verticalAlign=middle;spacingLeft=4;spacingRight=4;overflow=hidden;points=[[0,0.5],[1,0.5]];portConstraint=eastwest;rotatable=0;whiteSpace=wrap;html=1;" vertex="1" parent="900KOigRp1aH0985cUeR-17">
          <mxGeometry y="60" width="110" height="30" as="geometry" />
        </mxCell>
        <mxCell id="900KOigRp1aH0985cUeR-20" value="Match 231" style="text;strokeColor=none;fillColor=none;align=left;verticalAlign=middle;spacingLeft=4;spacingRight=4;overflow=hidden;points=[[0,0.5],[1,0.5]];portConstraint=eastwest;rotatable=0;whiteSpace=wrap;html=1;" vertex="1" parent="900KOigRp1aH0985cUeR-17">
          <mxGeometry y="90" width="110" height="30" as="geometry" />
        </mxCell>
        <mxCell id="900KOigRp1aH0985cUeR-21" value="" style="rounded=0;whiteSpace=wrap;html=1;" vertex="1" parent="1">
          <mxGeometry x="140" y="760" width="410" height="170" as="geometry" />
        </mxCell>
        <mxCell id="900KOigRp1aH0985cUeR-22" value="Match Details" style="whiteSpace=wrap;html=1;" vertex="1" parent="1">
          <mxGeometry x="160" y="770" width="350" height="30" as="geometry" />
        </mxCell>
        <mxCell id="900KOigRp1aH0985cUeR-23" value="TEAM A" style="swimlane;fontStyle=0;childLayout=stackLayout;horizontal=1;startSize=30;horizontalStack=0;resizeParent=1;resizeParentMax=0;resizeLast=0;collapsible=1;marginBottom=0;whiteSpace=wrap;html=1;" vertex="1" parent="1">
          <mxGeometry x="170" y="810" width="80" height="120" as="geometry" />
        </mxCell>
        <mxCell id="900KOigRp1aH0985cUeR-24" value="Player1 1 kill 2 death" style="text;strokeColor=none;fillColor=none;align=left;verticalAlign=middle;spacingLeft=4;spacingRight=4;overflow=hidden;points=[[0,0.5],[1,0.5]];portConstraint=eastwest;rotatable=0;whiteSpace=wrap;html=1;" vertex="1" parent="900KOigRp1aH0985cUeR-23">
          <mxGeometry y="30" width="80" height="30" as="geometry" />
        </mxCell>
        <mxCell id="900KOigRp1aH0985cUeR-25" value="Player2 1 kill 2 death" style="text;strokeColor=none;fillColor=none;align=left;verticalAlign=middle;spacingLeft=4;spacingRight=4;overflow=hidden;points=[[0,0.5],[1,0.5]];portConstraint=eastwest;rotatable=0;whiteSpace=wrap;html=1;" vertex="1" parent="900KOigRp1aH0985cUeR-23">
          <mxGeometry y="60" width="80" height="30" as="geometry" />
        </mxCell>
        <mxCell id="900KOigRp1aH0985cUeR-26" value="Player3 1 kill 2 death" style="text;strokeColor=none;fillColor=none;align=left;verticalAlign=middle;spacingLeft=4;spacingRight=4;overflow=hidden;points=[[0,0.5],[1,0.5]];portConstraint=eastwest;rotatable=0;whiteSpace=wrap;html=1;" vertex="1" parent="900KOigRp1aH0985cUeR-23">
          <mxGeometry y="90" width="80" height="30" as="geometry" />
        </mxCell>
        <mxCell id="900KOigRp1aH0985cUeR-27" value="TEAM B" style="swimlane;fontStyle=0;childLayout=stackLayout;horizontal=1;startSize=30;horizontalStack=0;resizeParent=1;resizeParentMax=0;resizeLast=0;collapsible=1;marginBottom=0;whiteSpace=wrap;html=1;" vertex="1" parent="1">
          <mxGeometry x="390" y="810" width="110" height="120" as="geometry" />
        </mxCell>
        <mxCell id="900KOigRp1aH0985cUeR-28" value="Player4 1 kill 2 death" style="text;strokeColor=none;fillColor=none;align=left;verticalAlign=middle;spacingLeft=4;spacingRight=4;overflow=hidden;points=[[0,0.5],[1,0.5]];portConstraint=eastwest;rotatable=0;whiteSpace=wrap;html=1;" vertex="1" parent="900KOigRp1aH0985cUeR-27">
          <mxGeometry y="30" width="110" height="30" as="geometry" />
        </mxCell>
        <mxCell id="900KOigRp1aH0985cUeR-29" value="Player5 1 kill 2 death" style="text;strokeColor=none;fillColor=none;align=left;verticalAlign=middle;spacingLeft=4;spacingRight=4;overflow=hidden;points=[[0,0.5],[1,0.5]];portConstraint=eastwest;rotatable=0;whiteSpace=wrap;html=1;" vertex="1" parent="900KOigRp1aH0985cUeR-27">
          <mxGeometry y="60" width="110" height="30" as="geometry" />
        </mxCell>
        <mxCell id="900KOigRp1aH0985cUeR-30" value="Player6 1 kill 2 death" style="text;strokeColor=none;fillColor=none;align=left;verticalAlign=middle;spacingLeft=4;spacingRight=4;overflow=hidden;points=[[0,0.5],[1,0.5]];portConstraint=eastwest;rotatable=0;whiteSpace=wrap;html=1;" vertex="1" parent="900KOigRp1aH0985cUeR-27">
          <mxGeometry y="90" width="110" height="30" as="geometry" />
        </mxCell>
        <mxCell id="900KOigRp1aH0985cUeR-31" value="" style="rounded=0;whiteSpace=wrap;html=1;" vertex="1" parent="1">
          <mxGeometry x="140" y="970" width="410" height="170" as="geometry" />
        </mxCell>
        <mxCell id="900KOigRp1aH0985cUeR-32" value="Player1 Match Stats" style="whiteSpace=wrap;html=1;" vertex="1" parent="1">
          <mxGeometry x="160" y="980" width="350" height="30" as="geometry" />
        </mxCell>
        <mxCell id="900KOigRp1aH0985cUeR-33" value="Inventory" style="swimlane;fontStyle=0;childLayout=stackLayout;horizontal=1;startSize=30;horizontalStack=0;resizeParent=1;resizeParentMax=0;resizeLast=0;collapsible=1;marginBottom=0;whiteSpace=wrap;html=1;" vertex="1" parent="1">
          <mxGeometry x="295" y="1020" width="80" height="120" as="geometry" />
        </mxCell>
        <mxCell id="900KOigRp1aH0985cUeR-34" value="1 Bought ITEM 1" style="text;strokeColor=none;fillColor=none;align=left;verticalAlign=middle;spacingLeft=4;spacingRight=4;overflow=hidden;points=[[0,0.5],[1,0.5]];portConstraint=eastwest;rotatable=0;whiteSpace=wrap;html=1;" vertex="1" parent="900KOigRp1aH0985cUeR-33">
          <mxGeometry y="30" width="80" height="30" as="geometry" />
        </mxCell>
        <mxCell id="900KOigRp1aH0985cUeR-35" value="1 Bought ITEM 4" style="text;strokeColor=none;fillColor=none;align=left;verticalAlign=middle;spacingLeft=4;spacingRight=4;overflow=hidden;points=[[0,0.5],[1,0.5]];portConstraint=eastwest;rotatable=0;whiteSpace=wrap;html=1;" vertex="1" parent="900KOigRp1aH0985cUeR-33">
          <mxGeometry y="60" width="80" height="30" as="geometry" />
        </mxCell>
        <mxCell id="900KOigRp1aH0985cUeR-36" value="..." style="text;strokeColor=none;fillColor=none;align=left;verticalAlign=middle;spacingLeft=4;spacingRight=4;overflow=hidden;points=[[0,0.5],[1,0.5]];portConstraint=eastwest;rotatable=0;whiteSpace=wrap;html=1;" vertex="1" parent="900KOigRp1aH0985cUeR-33">
          <mxGeometry y="90" width="80" height="30" as="geometry" />
        </mxCell>
        <mxCell id="900KOigRp1aH0985cUeR-37" value="Skills Upgrade order" style="swimlane;fontStyle=0;childLayout=stackLayout;horizontal=1;startSize=30;horizontalStack=0;resizeParent=1;resizeParentMax=0;resizeLast=0;collapsible=1;marginBottom=0;whiteSpace=wrap;html=1;" vertex="1" parent="1">
          <mxGeometry x="390" y="1020" width="110" height="120" as="geometry" />
        </mxCell>
        <mxCell id="900KOigRp1aH0985cUeR-38" value="Upgraded skill Q" style="text;strokeColor=none;fillColor=none;align=left;verticalAlign=middle;spacingLeft=4;spacingRight=4;overflow=hidden;points=[[0,0.5],[1,0.5]];portConstraint=eastwest;rotatable=0;whiteSpace=wrap;html=1;" vertex="1" parent="900KOigRp1aH0985cUeR-37">
          <mxGeometry y="30" width="110" height="30" as="geometry" />
        </mxCell>
        <mxCell id="900KOigRp1aH0985cUeR-39" value="Upgraded skill W" style="text;strokeColor=none;fillColor=none;align=left;verticalAlign=middle;spacingLeft=4;spacingRight=4;overflow=hidden;points=[[0,0.5],[1,0.5]];portConstraint=eastwest;rotatable=0;whiteSpace=wrap;html=1;" vertex="1" parent="900KOigRp1aH0985cUeR-37">
          <mxGeometry y="60" width="110" height="30" as="geometry" />
        </mxCell>
        <mxCell id="900KOigRp1aH0985cUeR-40" value="Upgraded skill Q" style="text;strokeColor=none;fillColor=none;align=left;verticalAlign=middle;spacingLeft=4;spacingRight=4;overflow=hidden;points=[[0,0.5],[1,0.5]];portConstraint=eastwest;rotatable=0;whiteSpace=wrap;html=1;" vertex="1" parent="900KOigRp1aH0985cUeR-37">
          <mxGeometry y="90" width="110" height="30" as="geometry" />
        </mxCell>
        <mxCell id="900KOigRp1aH0985cUeR-46" value="Champion Name" style="rounded=0;whiteSpace=wrap;html=1;" vertex="1" parent="1">
          <mxGeometry x="160" y="1020" width="90" height="30" as="geometry" />
        </mxCell>
        <mxCell id="900KOigRp1aH0985cUeR-47" value="" style="rounded=0;whiteSpace=wrap;html=1;" vertex="1" parent="1">
          <mxGeometry x="660" y="970" width="410" height="170" as="geometry" />
        </mxCell>
        <mxCell id="900KOigRp1aH0985cUeR-48" value="Character X Description" style="whiteSpace=wrap;html=1;" vertex="1" parent="1">
          <mxGeometry x="680" y="980" width="350" height="30" as="geometry" />
        </mxCell>
        <mxCell id="900KOigRp1aH0985cUeR-57" value="nome rdfs:comment" style="rounded=0;whiteSpace=wrap;html=1;" vertex="1" parent="1">
          <mxGeometry x="755" y="1010" width="200" height="30" as="geometry" />
        </mxCell>
        <mxCell id="900KOigRp1aH0985cUeR-60" value="Ability X | Effect X | Description&lt;br&gt;Ability X | Effect X | Description&lt;br&gt;Ability X | Effect X | Description" style="shape=internalStorage;whiteSpace=wrap;html=1;backgroundOutline=1;" vertex="1" parent="1">
          <mxGeometry x="695" y="1050" width="340" height="90" as="geometry" />
        </mxCell>
      </root>
    </mxGraphModel>
  </diagram>
</mxfile>
